HIERARCHY
ROOT root
{
	OFFSET	0	13.1	24.9
	CHANNELS 6  Xposition Yposition Zposition Xrotation Yrotation Zrotation
	JOINT spine_1
	{
		OFFSET	0	9.99999	0
		CHANNELS 3  Xrotation Yrotation Zrotation
		JOINT spine_2
		{
			OFFSET	0	112	-10
			CHANNELS 3  Xrotation Yrotation Zrotation
			JOINT spine_3
			{
				OFFSET	0	206.5	19.3
				CHANNELS 3  Xrotation Yrotation Zrotation
				JOINT spine_4
				{
					OFFSET	0	110.4	14.6
					CHANNELS 3  Xrotation Yrotation Zrotation
					JOINT neck_1
					{
						OFFSET	0	71.8	-50.3
						CHANNELS 3  Xrotation Yrotation Zrotation
						JOINT neck_2
						{
							OFFSET	0	86.2	-25.8
							CHANNELS 3  Xrotation Yrotation Zrotation
							JOINT head_ee
							{
								OFFSET	0	179.8	-8.7
								CHANNELS 3  Xrotation Yrotation Zrotation
								End Site
								{
									OFFSET	1	0	0
								}
							}
						}
					}
					JOINT left_clavicle
					{
						OFFSET	-43.2	22.4	-70.8
						CHANNELS 3  Xrotation Yrotation Zrotation
						JOINT left_shoulder
						{
							OFFSET	-93.9	-5.79999	48.7
							CHANNELS 3  Xrotation Yrotation Zrotation
							JOINT left_elbow
							{
								OFFSET	-291.4	-30.8	15.2
								CHANNELS 3  Xrotation Yrotation Zrotation
								JOINT left_lowarm_twist
								{
									OFFSET	-110.7	-3.89999	13.6
									CHANNELS 3  Xrotation Yrotation Zrotation
									JOINT left_hand
									{
										OFFSET	-110.7	-3.89999	13.6
										CHANNELS 3  Xrotation Yrotation Zrotation
										JOINT left_ee
										{
											OFFSET	-80.8	-5.10001	12.1
											CHANNELS 3  Xrotation Yrotation Zrotation
											End Site
											{
												OFFSET	1	0	0
											}
										}
									}
								}
							}
						}
					}
					JOINT right_clavicle
					{
						OFFSET	43.2	22.4	-70.8
						CHANNELS 3  Xrotation Yrotation Zrotation
						JOINT right_shoulder
						{
							OFFSET	93.9	-5.79999	48.7
							CHANNELS 3  Xrotation Yrotation Zrotation
							JOINT right_elbow
							{
								OFFSET	291.4	-30.8	15.2
								CHANNELS 3  Xrotation Yrotation Zrotation
								JOINT right_lowarm_twist
								{
									OFFSET	110.7	-3.89999	13.6
									CHANNELS 3  Xrotation Yrotation Zrotation
									JOINT right_hand
									{
										OFFSET	110.7	-3.89999	13.6
										CHANNELS 3  Xrotation Yrotation Zrotation
										JOINT right_ee
										{
											OFFSET	80.8	-5.10001	12.1
											CHANNELS 3  Xrotation Yrotation Zrotation
											End Site
											{
												OFFSET	1	0	0
											}
										}
									}
								}
							}
						}
					}
				}
			}
		}
	}
	JOINT left_hip
	{
		OFFSET	-82.8	-127.5	0.300001
		CHANNELS 3  Xrotation Yrotation Zrotation
		JOINT left_knee
		{
			OFFSET	-28.2	-396.7	2.2
			CHANNELS 3  Xrotation Yrotation Zrotation
			JOINT left_ankle
			{
				OFFSET	-11.7	-411.3	35.4
				CHANNELS 3  Xrotation Yrotation Zrotation
				JOINT left_toes
				{
					OFFSET	0	-60	-88.6
					CHANNELS 3  Xrotation Yrotation Zrotation
					JOINT left_foot_ee
					{
						OFFSET	-22.5	-16.5	-42.2
						CHANNELS 3  Xrotation Yrotation Zrotation
						End Site
						{
							OFFSET	1	0	0
						}
					}
				}
			}
		}
	}
	JOINT right_hip
	{
		OFFSET	82.8	-127.5	0.300001
		CHANNELS 3  Xrotation Yrotation Zrotation
		JOINT right_knee
		{
			OFFSET	28.2	-396.7	2.2
			CHANNELS 3  Xrotation Yrotation Zrotation
			JOINT right_ankle
			{
				OFFSET	11.7	-411.3	35.4
				CHANNELS 3  Xrotation Yrotation Zrotation
				JOINT right_toes
				{
					OFFSET	0	-60	-88.6
					CHANNELS 3  Xrotation Yrotation Zrotation
					JOINT right_foot_ee
					{
						OFFSET	22.5	-16.5	-42.2
						CHANNELS 3  Xrotation Yrotation Zrotation
						End Site
						{
							OFFSET	1	0	0
						}
					}
				}
			}
		}
	}
}
MOTION
Frames: 11
Frame Time: 0.02
3177.02 653.055 -1669.29 -17.373601737 87.1456115768 19.0039789165 0.130226 0.0810577 -0.827523 0.130597 0.133549 -0.820689 0.128782 0.301337 -0.774962 0.127986 0.175169 -0.812824 -11.0367 9.18739 3.97495 -11.0894 14.7554 6.29239 -0.0 0.0 -0.0 3.64392 24.2056 7.72432 -26.7914 -10.9158 66.5408 0.191454 -5.41789 0.0090587 78.1961 -3.63218 -8.50483 -8.06386 29.9928 -33.5154 -0.0 0.0 -0.0 11.0155 15.097 -21.9607 20.3899 4.39464 -71.3025 1.77171 41.2682 -0.667192 51.0188 1.04271 6.22084 0.825868 -23.853 -14.35 0.0 0.0 0.0 29.8915 11.0585 -6.56125 -5.5138 0.187429 0.825123 3.63835 0.198883 -0.532739 -14.0639 0.0 0.0 -0.0 0.0 -0.0 -20.9468 33.757 -4.37679 4.68612 0.221142 0.684764 39.1438 9.96697 4.95109 -2.33229 0.0 0.0 0.0 0.0 0.0 
3155.03647676 653.256 -1663.65134041 -19.7242625539 86.5651685647 21.5010663186 0.232298 0.0898837 -0.906671 0.232743 0.147393 -0.899115 0.230538 0.329688 -0.849378 0.229582 0.191413 -0.890783 -10.9833 8.76152 3.92786 -11.0259 13.9731 6.12502 -0.0 0.0 -0.0 3.76232 24.2962 7.8857 -26.5049 -10.8389 67.0659 0.192295 -5.44155 0.00913824 78.6417 -3.68285 -8.53135 -8.07288 29.9632 -33.6104 -0.0 0.0 -0.0 11.172 15.8415 -22.2832 18.2902 4.22761 -69.8808 1.78418 41.4675 -0.675434 50.0418 0.971804 6.11777 0.678644 -26.8366 -14.4384 0.0 0.0 0.0 30.6498 11.2135 -6.94781 -10.169 0.283283 1.53286 5.40967 -0.900672 -0.790186 -11.8953 0.0 0.0 -0.0 0.0 -0.0 -22.5661 33.8667 -3.64299 4.87625 0.231294 0.712158 37.0603 10.6674 4.77763 -3.09672 0.0 0.0 0.0 0.0 0.0 
3155.03266255 653.256 -1663.66623188 -19.5083449269 86.5286125185 21.2847559761 0.232298 0.0898837 -0.906671 0.232743 0.147393 -0.899115 0.230538 0.329688 -0.849378 0.229582 0.191413 -0.890783 -10.9833 8.76152 3.92786 -11.0259 13.9731 6.12502 -0.0 0.0 -0.0 3.76232 24.2962 7.8857 -26.5049 -10.8389 67.0659 0.192295 -5.44155 0.00913824 78.6417 -3.68285 -8.53135 -8.07288 29.9632 -33.6104 -0.0 0.0 -0.0 11.172 15.8415 -22.2832 18.2902 4.22761 -69.8808 1.78418 41.4675 -0.675434 50.0418 0.971804 6.11777 0.678644 -26.8366 -14.4384 0.0 0.0 0.0 30.6498 11.2135 -6.94781 -10.169 0.283283 1.53286 5.40967 -0.900672 -0.790186 -11.8953 0.0 0.0 -0.0 0.0 -0.0 -22.5661 33.8667 -3.64299 4.87625 0.231294 0.712158 37.0603 10.6674 4.77763 -3.09672 0.0 0.0 0.0 0.0 0.0 
3132.01424572 657.596 -1660.64610373 -17.3692316 86.000697656 19.5401175125 0.0969857 0.0603274 -1.10659 0.0976575 0.130616 -1.10051 0.0953578 0.3573 -1.04906 0.0938711 0.187148 -1.09231 -11.2087 9.70764 3.72835 -11.2874 15.9251 6.22179 -0.0 0.0 -0.0 4.06545 23.8777 8.30407 -24.7523 -11.1165 67.4115 0.211832 -5.99058 0.0110842 79.911 -3.82829 -8.60475 -8.27058 30.2156 -34.663 -0.0 0.0 -0.0 10.8881 14.756 -21.6871 15.1623 4.95282 -69.532 1.84517 42.4245 -0.716201 48.8519 0.887848 5.99064 0.480994 -27.5858 -13.5513 0.0 0.0 0.0 30.4689 10.8052 -7.42195 -13.2685 0.315093 2.00732 6.23061 -1.31063 -0.9088 -9.77897 0.0 0.0 -0.0 0.0 -0.0 -23.6819 34.417 -3.31584 4.69696 0.221718 0.686327 34.1416 14.8091 4.60326 -1.51111 0.0 0.0 0.0 0.0 0.0 
3089.77954878 662.404 -1654.24770631 -6.6593336603 84.5115483536 9.0873946273 -0.0617483 -0.00845731 -1.22975 -0.0609096 0.069806 -1.2278 -0.0620645 0.327637 -1.18534 -0.0639994 0.136337 -1.2222 -11.2076 10.1736 6.05326 -11.2131 15.2837 8.57201 -0.0 0.0 -0.0 4.88008 23.6577 9.43827 -21.6314 -11.6991 67.3059 0.309671 -8.72149 0.0236146 81.5227 -4.01522 -8.69326 -7.94174 29.8751 -32.8277 -0.0 0.0 -0.0 10.737 13.6839 -21.3849 10.5439 4.62297 -68.1443 1.79723 41.6746 -0.684091 47.5983 0.802287 5.85487 0.488633 -29.1757 -14.1007 0.0 0.0 0.0 29.5551 8.96894 -6.21765 -19.5474 0.300748 2.97011 14.8263 4.66875 -2.07245 -12.5356 0.0 0.0 -0.0 0.0 -0.0 -23.7056 35.2134 -3.61963 -0.149903 -0.00614342 -0.0221838 24.5806 16.9677 3.58169 1.55802 -0.0 -0.0 0.0 0.0 0.0 
3036.54649134 670.463 -1652.91783948 1.2564315878 82.6690543187 1.79930874133 -0.0833655 -0.142875 -1.51954 -0.0820821 -0.0459041 -1.52555 -0.0802239 0.277916 -1.50073 -0.0833648 0.0374442 -1.52578 -13.3782 10.9863 7.28176 -13.4122 16.4255 10.2707 -0.0 0.0 -0.0 5.63939 22.8791 10.5439 -19.3899 -12.3302 67.5828 0.3683 -10.3398 0.0333231 82.6903 -4.15216 -8.75409 -7.70773 29.7038 -31.4643 -0.0 0.0 -0.0 10.5549 12.1156 -21.0203 5.44946 2.88496 -67.3072 1.48128 36.2682 -0.485156 45.3803 0.65828 5.61024 0.758582 -27.6141 -15.1368 0.0 0.0 0.0 25.6938 11.7305 -6.82263 -19.6808 0.2993 2.99052 19.231 4.91526 -2.63698 -14.9945 0.0 0.0 -0.0 0.0 -0.0 -22.3716 36.9115 -4.91269 -6.93767 -0.222851 -1.04076 13.3014 22.2318 2.15399 2.54573 -0.0 -0.0 0.0 0.0 0.0 
3036.38878139 670.463 -1654.33290707 1.16530595829 82.092339461 1.89124492779 -0.0833655 -0.142875 -1.51954 -0.0820821 -0.0459041 -1.52555 -0.0802239 0.277916 -1.50073 -0.0833648 0.0374442 -1.52578 -13.3782 10.9863 7.28176 -13.4122 16.4255 10.2707 -0.0 0.0 -0.0 5.63939 22.8791 10.5439 -19.3899 -12.3302 67.5828 0.3683 -10.3398 0.0333231 82.6903 -4.15216 -8.75409 -7.70773 29.7038 -31.4643 -0.0 0.0 -0.0 10.5549 12.1156 -21.0203 5.44946 2.88496 -67.3072 1.48128 36.2682 -0.485156 45.3803 0.65828 5.61024 0.758582 -27.6141 -15.1368 0.0 0.0 0.0 25.6938 11.7305 -6.82263 -19.6808 0.2993 2.99052 19.231 4.91526 -2.63698 -14.9945 0.0 0.0 -0.0 0.0 -0.0 -22.3716 36.9115 -4.91269 -6.93767 -0.222851 -1.04076 13.3014 22.2318 2.15399 2.54573 -0.0 -0.0 0.0 0.0 0.0 
3036.22577009 670.463 -1655.95436726 1.0761096551 81.4322424069 1.98136964442 -0.0833655 -0.142875 -1.51954 -0.0820821 -0.0459041 -1.52555 -0.0802239 0.277916 -1.50073 -0.0833648 0.0374442 -1.52578 -13.3782 10.9863 7.28176 -13.4122 16.4255 10.2707 -0.0 0.0 -0.0 5.63939 22.8791 10.5439 -19.3899 -12.3302 67.5828 0.3683 -10.3398 0.0333231 82.6903 -4.15216 -8.75409 -7.70773 29.7038 -31.4643 -0.0 0.0 -0.0 10.5549 12.1156 -21.0203 5.44946 2.88496 -67.3072 1.48128 36.2682 -0.485156 45.3803 0.65828 5.61024 0.758582 -27.6141 -15.1368 0.0 0.0 0.0 25.6938 11.7305 -6.82263 -19.6808 0.2993 2.99052 19.231 4.91526 -2.63698 -14.9945 0.0 0.0 -0.0 0.0 -0.0 -22.3716 36.9115 -4.91269 -6.93767 -0.222851 -1.04076 13.3014 22.2318 2.15399 2.54573 -0.0 -0.0 0.0 0.0 0.0 
3007.30920818 678.059 -1655.55442954 0.939030841114 80.1392441665 2.45014335527 -0.120835 -0.156944 -1.68434 -0.119257 -0.0494624 -1.69092 -0.117002 0.310509 -1.66291 -0.120858 0.0440268 -1.69107 -13.6579 11.3648 7.12614 -13.7279 17.2962 10.2882 -0.0 0.0 -0.0 6.18184 23.6126 11.2681 -18.156 -12.5777 67.5763 0.430968 -12.0513 0.0454919 82.9912 -4.18765 -8.76931 -7.33564 29.5541 -29.2113 -0.0 0.0 -0.0 10.1542 6.79501 -20.1764 3.07911 2.65919 -66.6139 1.42968 35.3049 -0.454985 43.6978 0.555442 5.4211 1.55012 -28.8093 -20.0274 0.0 0.0 0.0 21.4334 8.93035 -5.19723 -16.3035 0.321337 2.47288 22.3962 4.97431 -3.02499 -17.6401 0.0 0.0 -0.0 0.0 -0.0 -22.2058 37.2694 -4.53538 -9.5661 -0.274116 -1.4408 8.25976 23.9721 1.39176 2.65992 -0.0 -0.0 0.0 0.0 0.0 
2980.50515425 684.64 -1662.67235485 2.83735202779 79.3882097865 1.93925119077 -0.0144123 -0.147677 -1.76888 -0.012672 -0.0348378 -1.77469 -0.0107787 0.339364 -1.74229 -0.0150102 0.0599874 -1.77401 -13.9814 11.4152 7.06687 -14.069 17.4867 10.301 -0.0 0.0 -0.0 6.60487 24.1062 11.8253 -16.9468 -12.8371 67.009 0.461887 -12.8879 0.0521683 82.1771 -4.09182 -8.7277 -7.48115 29.5786 -30.1208 -0.0 0.0 -0.0 9.66991 4.79183 -19.1154 -0.108274 3.25914 -66.6133 1.3886 34.5211 -0.431472 39.884 0.343243 4.9819 1.40371 -29.5725 -19.3738 0.0 0.0 0.0 18.1178 7.03269 -4.07647 -15.1983 0.321919 2.3033 25.1207 6.19043 -3.34479 -18.4204 0.0 0.0 -0.0 0.0 -0.0 -21.4686 37.8172 -4.94812 -12.3296 -0.308168 -1.86342 0.91203 25.579 0.16055 1.43993 -0.0 -0.0 0.0 0.0 0.0 
2949.31354617 683.866 -1660.81362651 8.10728101879 77.3709513225 -3.89086417144 0.0727794 -0.106401 -2.00883 0.0750243 0.0216152 -2.01153 0.075202 0.441509 -1.96262 0.0698487 0.126076 -2.00769 -14.0872 10.9054 7.15635 -14.1474 16.4744 10.2339 -0.0 0.0 -0.0 6.92392 24.5666 12.23 -15.2509 -13.5159 66.8275 0.569159 -15.7457 0.078703 81.9995 -4.071 -8.71844 -7.40005 29.5517 -29.6263 -0.0 0.0 -0.0 8.55291 2.88103 -16.7523 -2.65376 2.22401 -67.5197 1.26768 32.1262 -0.365025 38.1773 0.257869 4.78104 1.72577 -29.6571 -21.2546 0.0 0.0 0.0 14.0279 3.66222 -3.62839 -15.0979 0.321809 2.2879 29.9684 7.68614 -3.88608 -20.1586 0.0 0.0 -0.0 0.0 -0.0 -19.9224 35.3005 -7.00108 -18.2149 -0.312613 -2.766 -4.61635 28.8608 -0.859312 0.322011 -0.0 -0.0 0.0 0.0 0.0 
